<?xml version="1.0" encoding="UTF-8"?>
<svg id="Layer_2" data-name="Layer 2" xmlns="http://www.w3.org/2000/svg" xmlns:xlink="http://www.w3.org/1999/xlink" viewBox="0 0 1174.58 470.13">
  <defs>
    <style>
      .cls-1 {
        fill: #7d4e24;
      }

      .cls-1, .cls-2, .cls-3, .cls-4, .cls-5, .cls-6, .cls-7, .cls-8, .cls-9, .cls-10, .cls-11, .cls-12, .cls-13, .cls-14, .cls-15 {
        stroke-miterlimit: 10;
        stroke-width: 2px;
      }

      .cls-1, .cls-2, .cls-3, .cls-4, .cls-5, .cls-6, .cls-7, .cls-8, .cls-9, .cls-10, .cls-11, .cls-12, .cls-13, .cls-15 {
        stroke: #1d1d1b;
      }

      .cls-2 {
        fill: #95c11f;
      }

      .cls-3 {
        fill: #e7c0bc;
      }

      .cls-16 {
        fill: #1d1d1b;
        font-family: CascadiaCode-Regular, 'Cascadia Code';
        font-size: 28.33px;
        font-variation-settings: 'wght' 400;
      }

      .cls-4 {
        fill: #0f3e21;
      }

      .cls-5 {
        fill: #cbbba0;
      }

      .cls-6 {
        fill: url(#Naamloos_verloop_6);
      }

      .cls-7 {
        fill: url(#Wit_zwart-2);
      }

      .cls-8 {
        fill: url(#Naamloos_verloop_6-2);
      }

      .cls-9 {
        fill: #e6e8e2;
      }

      .cls-10 {
        fill: #683c11;
      }

      .cls-11, .cls-14 {
        fill: none;
      }

      .cls-12 {
        fill: #3e5b43;
      }

      .cls-13 {
        fill: url(#Wit_zwart);
      }

      .cls-14 {
        stroke: #f8f2e5;
      }

      .cls-15 {
        fill: url(#Naamloos_verloop_17);
      }
    </style>
    <linearGradient id="Wit_zwart" data-name="Wit, zwart" x1="1166.75" y1="209.31" x2="422.85" y2="209.31" gradientUnits="userSpaceOnUse">
      <stop offset="0" stop-color="#fff"/>
      <stop offset="1" stop-color="#1d1d1b"/>
    </linearGradient>
    <linearGradient id="Wit_zwart-2" data-name="Wit, zwart" y1="257.63" x2="423.87" y2="257.63" xlink:href="#Wit_zwart"/>
    <linearGradient id="Naamloos_verloop_6" data-name="Naamloos verloop 6" x1="263.73" y1="117.31" x2="382.4" y2="74.11" gradientUnits="userSpaceOnUse">
      <stop offset="0" stop-color="#fff"/>
      <stop offset="1" stop-color="#1d1d1b"/>
    </linearGradient>
    <linearGradient id="Naamloos_verloop_6-2" data-name="Naamloos verloop 6" x1="217.8" y1="412.42" x2="440.76" y2="331.27" xlink:href="#Naamloos_verloop_6"/>
    <linearGradient id="Naamloos_verloop_17" data-name="Naamloos verloop 17" x1="74.7" y1="250.95" x2="-11.25" y2="227.91" gradientUnits="userSpaceOnUse">
      <stop offset=".04" stop-color="#fff"/>
      <stop offset=".93" stop-color="#1d1d1b"/>
    </linearGradient>
  </defs>
  <g id="vines">
    <g>
      <g>
        <polygon class="cls-5" points="482.75 181.49 474.29 209.63 464.99 184.18 482.75 181.49"/>
        <polygon class="cls-5" points="654.59 235.12 680.15 220.63 669.29 245.45 654.59 235.12"/>
        <polygon class="cls-5" points="433 170.94 436.85 141.81 450.11 165.44 433 170.94"/>
        <polygon class="cls-5" points="541.61 195.3 522.61 217.72 524.25 190.67 541.61 195.3"/>
        <polygon class="cls-5" points="1028.69 175.58 1046.89 152.51 1046.2 179.6 1028.69 175.58"/>
        <polygon class="cls-5" points="981.67 182.9 985.51 153.77 998.77 177.4 981.67 182.9"/>
        <polygon class="cls-5" points="871.74 245.73 863.04 217.66 884.97 233.58 871.74 245.73"/>
        <polygon class="cls-5" points="915.47 213.19 914.76 183.81 931.52 205.1 915.47 213.19"/>
        <polygon class="cls-5" points="810.84 289.93 804.82 261.17 825.16 279.08 810.84 289.93"/>
        <polygon class="cls-5" points="733.79 289.93 750.86 266.02 751.47 293.11 733.79 289.93"/>
        <polygon class="cls-5" points="612.37 203.14 637.81 188.42 627.16 213.34 612.37 203.14"/>
        <polygon class="cls-5" points="567.49 176.25 588.31 155.52 584.4 182.33 567.49 176.25"/>
        <polygon class="cls-5" points="488.24 161.45 503 136.05 506.14 162.96 488.24 161.45"/>
        <polygon class="cls-5" points="1076.16 198.03 1061.32 223.39 1058.27 196.46 1076.16 198.03"/>
        <polygon class="cls-5" points="1027.63 195.06 1016.33 222.19 1009.69 195.92 1027.63 195.06"/>
        <polygon class="cls-5" points="975.87 203.59 973.42 232.87 959.05 209.89 975.87 203.59"/>
        <polygon class="cls-5" points="919.53 232.22 927.09 260.61 905.82 243.83 919.53 232.22"/>
        <polygon class="cls-5" points="874.79 278.23 880.64 307.02 860.41 289 874.79 278.23"/>
        <polygon class="cls-5" points="793.17 320.54 787.4 349.35 775.74 324.89 793.17 320.54"/>
        <polygon class="cls-5" points="702.02 302.24 677.26 318.07 686.79 292.71 702.02 302.24"/>
        <polygon class="cls-5" points="643.35 248.75 615.22 257.24 631.29 235.43 643.35 248.75"/>
        <polygon class="cls-5" points="600.78 218.41 578.55 237.62 584.35 211.16 600.78 218.41"/>
        <polygon class="cls-5" points="422.41 208.72 431.76 236.58 409.47 221.18 422.41 208.72"/>
        <path class="cls-1" d="M1128.48,193.73c-1.34-2.2-.15-4.92,1.9-6.38-3.29-2.7-6.58-5.41-9.92-8.07-.6.14-1.21.29-1.86.48-3.31.98-6.26,2.77-9.81,2.22-1.46-.23-2.58-.96-3.97-1.37-.55-.16-.86-.28-1.1-.32-.64.35-1.27.71-1.9,1.07-2.14,1.22-4.09.85-5.43-.29-10.58,1.28-27,2.16-43.27-1.41-27.21-5.97-61.98-8.77-126.9,27.33-64.92,36.1-64.58,60.57-87.47,67.08-22.9,6.51-21.97,31.05-107.4,15.01,0,0-130.69-92.89-132.49-97.3-1.8-4.41-98.95-53.56-173.39-17.52,0,0-21.06,6.15-54.87,54.7l-5.45,41.27s64.44-88.88,117.71-86.31c53.27,2.56,135.13,32.13,171.07,77.97,35.94,45.84,101.3,78.59,159.39,51.41,58.08-27.18,67.45-30.41,86.31-58.29,18.87-27.89,81.12-64.04,144.06-58.12s54.49,11.36,54.49,11.36c0,0,17.02,3.37,28.06-6.62-2.02-2.54-1.32-6.87,2.22-7.89Z"/>
      </g>
      <path class="cls-11" d="M68.08,197.94v82.28s154.14-35.93,281.62,0l-111.26,144.87v44.04s57.95,0,57.95,0l127.48-184.27h579.47s163.41-54.47,163.41-54.47l-164.43-45.12H422.85L295.37,1h-57.95v44.04s111.26,144.87,111.26,144.87c-127.48,35.93-281.62,0-281.62,0v82.28"/>
      <polygon class="cls-4" points="348.68 189.91 349.7 280.23 423.87 284.86 422.85 185.27 348.68 189.91"/>
      <polygon class="cls-12" points="422.85 185.27 471.38 233.35 423.87 284.86 422.85 185.27"/>
      <polygon class="cls-9" points="348.68 189.91 301.02 234.08 349.7 280.23 348.68 189.91"/>
      <polygon class="cls-13" points="422.85 185.27 471.38 233.35 1166.75 230.39 1002.32 185.27 422.85 185.27"/>
      <polygon class="cls-7" points="471.38 233.35 423.87 284.86 1003.34 284.86 1166.75 230.39 471.38 233.35"/>
      <path class="cls-10" d="M67.06,189.91s131.5,34.88,281.62,0l-47.66,44.17-233.96.99v-45.16Z"/>
      <path class="cls-10" d="M67.06,279.47s131.5-34.88,281.62,0l-47.66-44.17-233.96-.99v45.16Z"/>
      <polygon class="cls-6" points="348.68 189.91 237.42 45.04 237.42 1 295.37 1 422.85 185.27 348.68 189.91"/>
      <polygon class="cls-8" points="348.68 279.47 238.44 425.09 238.44 469.13 296.39 469.13 423.87 284.86 348.68 279.47"/>
      <g>
        <polygon class="cls-14" points="484.83 193.01 478.91 200.97 478.6 211.53 484.83 219.92 494.65 223.56 504.52 219.98 510.82 211.53 510.82 201.28 504.34 192.64 494.71 189.92 484.83 193.01"/>
        <polygon class="cls-14" points="494.71 198.19 487.05 203.75 489.77 212.82 499.34 213.07 502.61 203.87 494.71 198.19"/>
        <line class="cls-14" x1="494.71" y1="198.19" x2="494.71" y2="189.92"/>
        <line class="cls-14" x1="502.61" y1="203.87" x2="510.82" y2="201.28"/>
        <line class="cls-14" x1="499.34" y1="213.07" x2="504.52" y2="219.98"/>
        <line class="cls-14" x1="489.77" y1="212.82" x2="484.83" y2="219.92"/>
        <line class="cls-14" x1="487.05" y1="203.75" x2="478.91" y2="200.97"/>
      </g>
      <g>
        <polygon class="cls-14" points="541.06 187.67 523.1 206.37 541.06 225.81 559.82 206.74 541.06 187.67"/>
        <polygon class="cls-14" points="541.06 187.67 531.68 205.08 541.06 209.95 550.93 205.32 541.06 187.67"/>
        <line class="cls-14" x1="550.93" y1="205.32" x2="559.82" y2="206.74"/>
        <line class="cls-14" x1="523.1" y1="206.37" x2="531.68" y2="205.08"/>
        <line class="cls-14" x1="541.06" y1="209.95" x2="541.06" y2="225.81"/>
      </g>
      <polygon class="cls-14" points="589.83 190.97 571.32 222.51 608.22 222.51 589.83 190.97"/>
      <g>
        <polygon class="cls-14" points="677.88 189.68 662.51 198.5 662.82 215.1 677.51 223.81 692.88 215.1 692.88 198.75 677.88 189.68"/>
        <polyline class="cls-14" points="662.51 198.5 677.69 207.45 692.88 198.75"/>
        <line class="cls-14" x1="677.69" y1="207.45" x2="677.51" y2="223.81"/>
      </g>
      <g>
        <polygon class="cls-14" points="634.82 187.86 620.31 198.47 620.31 213.04 634.57 223.59 649.44 213.1 649.44 198.72 634.82 187.86"/>
        <polygon class="cls-14" points="634.82 187.86 620.31 213.04 649.44 213.1 634.82 187.86"/>
      </g>
      <path class="cls-15" d="M67.06,189.91S.41,126.77,1.18,190.97c.77,64.2,0,79.52,0,79.52,0,0-6.87,83.06,65.89,8.98v-89.56Z"/>
      <g>
        <g>
          <polygon class="cls-3" points="435.95 236.37 409 277.55 364.11 276.64 337.58 234.38 365.81 192.91 410.7 193.82 435.95 236.37"/>
          <polygon class="cls-3" points="409.85 235.69 367.02 259.19 368.02 209.52 409.85 235.69"/>
          <polyline class="cls-3" points="435.95 236.37 409.85 235.69 410.7 193.82 368.02 209.52 365.81 192.91"/>
          <polyline class="cls-3" points="409.85 235.69 409 277.55 367.02 259.19 364.11 276.64"/>
          <polyline class="cls-3" points="367.02 259.19 337.58 234.38 368.02 209.52"/>
        </g>
        <text class="cls-16" transform="translate(371.16 225.72) rotate(91.61) scale(.6 1)"><tspan x="0" y="0">20</tspan></text>
      </g>
      <g>
        <polygon class="cls-5" points="522.96 301.7 513.68 274.27 505.37 299.65 522.96 301.7"/>
        <polygon class="cls-5" points="690.4 243.12 716.06 256.53 704.52 232.45 690.4 243.12"/>
        <polygon class="cls-5" points="474.31 313.76 479.08 342.32 491.34 318.6 474.31 313.76"/>
        <polygon class="cls-5" points="580.46 286.13 561 264.69 563.52 291.27 580.46 286.13"/>
        <polygon class="cls-5" points="1060.83 289.2 1079.54 311.3 1077.94 284.64 1060.83 289.2"/>
        <polygon class="cls-5" points="1014.28 283.56 1019.04 312.12 1031.31 288.4 1014.28 283.56"/>
        <polygon class="cls-5" points="903.9 225.37 896.28 253.31 917.34 236.9 903.9 225.37"/>
        <polygon class="cls-5" points="948.07 255.95 948.35 284.91 964.15 263.38 948.07 255.95"/>
        <polygon class="cls-5" points="842.44 183.89 837.48 212.41 856.91 194.09 842.44 183.89"/>
        <polygon class="cls-5" points="766.55 186.48 784.18 209.45 783.86 182.75 766.55 186.48"/>
        <polygon class="cls-5" points="649.89 276.03 675.43 289.67 664.11 265.49 649.89 276.03"/>
        <polygon class="cls-5" points="606.59 304.02 627.79 323.74 623.04 297.46 606.59 304.02"/>
        <polygon class="cls-5" points="529.03 321.26 544.42 345.78 546.61 319.17 529.03 321.26"/>
        <polygon class="cls-5" points="1106.84 265.49 1091.37 241.01 1089.27 267.63 1106.84 265.49"/>
        <polygon class="cls-5" points="1059.14 270.04 1047.1 243.7 1041.44 269.8 1059.14 270.04"/>
        <polygon class="cls-5" points="1007.88 263.38 1004.48 234.63 991.1 257.74 1007.88 263.38"/>
        <polygon class="cls-5" points="951.43 237.07 957.92 208.86 937.53 226.1 951.43 237.07"/>
        <polygon class="cls-5" points="905.82 193.26 910.61 164.71 891.29 183.14 905.82 193.26"/>
        <polygon class="cls-5" points="824.01 154.33 817.36 126.15 806.7 150.63 824.01 154.33"/>
        <polygon class="cls-5" points="734.85 175.41 709.94 160.66 720.18 185.32 734.85 175.41"/>
        <polygon class="cls-5" points="678.87 230.07 650.88 222.65 667.44 243.59 678.87 230.07"/>
        <polygon class="cls-5" points="637.96 261.38 615.42 243.2 622.02 269.08 637.96 261.38"/>
        <polygon class="cls-5" points="462.62 276.91 470.89 249.16 449.45 265.08 462.62 276.91"/>
        <path class="cls-1" d="M1170.59,277.4c-.57-1.12-.8-2.43-.53-3.64.46-2.06,1.1-4.02,1.93-5.87-3.05.36-8.23-.45-14.99-6.8-11.19-10.52-28.8-6.41-28.8-6.41,0,0,8.51,5.07-53.28,13.02-61.8,7.95-124.32-25.57-143.84-52.4-19.52-26.83-28.85-29.7-86.97-54.51-58.12-24.82-121.39,9.63-155.25,55.99-33.86,46.35-113.49,78.22-165.87,82.53-52.37,4.31-118.83-81.06-118.83-81.06l6.75,40.46c34.92,46.68,55.88,52.03,55.88,52.03,74.53,32.99,168.56-18.68,170.18-23.08,1.63-4.4,127.22-100.27,127.22-100.27,83.61-18.67,83.51,5.54,106.28,11.18s23.25,29.75,88.4,63.12c65.15,33.38,99.3,29.45,125.9,22.65,26.59-6.8,54.05-1.35,54.05-1.35l14.88,4.74c5.68-3,12.19-6.02,16.89-10.34Z"/>
      </g>
      <g>
        <path class="cls-12" d="M409.22,161.28s22.59,38.94,55.2,49.7c32.6,10.76,70.44,20.6,100.83,16.23,0,0,52.46,22.83,139.56-10.76,0,0,53.68-16.75,91.16,3.14,37.48,19.89,126.48,4.16,126.48,4.16,0,0-1.92-14.18,79.81,32.79,0,0,40.72,17.6,100.84-25.21,0,0,20.83-5.18,39.58-2.47,18.75,2.71-28.9,1.81-63.37,34.32-34.46,32.5-168.72-28.1-168.72-28.1l-43.64,3.54s-46.77,10.63-73.91-8.64c-27.14-19.27-93.67.6-93.67.6,0,0-62.36,22.36-95.8,15.86-33.44-6.5-122.81,10.33-201.13-75.45l6.78-9.72Z"/>
        <g>
          <path class="cls-2" d="M1161.82,251.69s-23.29,18.37-40.85-6.38c0,0,22.4-25.17,40.85,6.38Z"/>
          <path class="cls-2" d="M1156.63,208.19s-25.88-3.34-36.52,30.03c0,0,26.61,10.19,36.52-30.03Z"/>
          <path class="cls-2" d="M1171.86,224.47s-22.21-13.8-41.56,14.67c0,0,20.84,20.82,41.56-14.67Z"/>
          <path class="cls-2" d="M1167.9,204.75s-25.88-3.34-36.52,30.03c0,0,26.61,10.19,36.52-30.03Z"/>
          <path class="cls-2" d="M1173.27,249.87s-23.29,18.37-40.85-6.38c0,0,22.4-25.17,40.85,6.38Z"/>
        </g>
        <path class="cls-2" d="M406.92,151.28s-13.97,16.68,2.1,34.46c0,0,18.6-15.02-2.1-34.46Z"/>
        <path class="cls-2" d="M628.74,243.9s-13.97,16.68,2.1,34.46c0,0,18.6-15.02-2.1-34.46Z"/>
        <path class="cls-2" d="M550.55,197.88s-20.38,7.62-15.18,31.01c0,0,23.59-3.89,15.18-31.01Z"/>
        <path class="cls-2" d="M497.61,227.11s-13.97,16.68,2.1,34.46c0,0,18.6-15.02-2.1-34.46Z"/>
        <path class="cls-2" d="M451.82,205.08s21.65,2.09,27.24-21.21c0,0-22.91-6.85-27.24,21.21Z"/>
        <path class="cls-2" d="M1033.78,222.28s-13.97,16.68,2.1,34.46c0,0,18.6-15.02-2.1-34.46Z"/>
        <path class="cls-2" d="M948.28,246.93s-21.22,4.79-19.23,28.67c0,0,23.9-.67,19.23-28.67Z"/>
        <path class="cls-2" d="M843.63,193.5s-13.97,16.68,2.1,34.46c0,0,18.6-15.02-2.1-34.46Z"/>
        <path class="cls-2" d="M696.62,187.22s-13.97,16.68,2.1,34.46c0,0,18.6-15.02-2.1-34.46Z"/>
        <path class="cls-2" d="M760.88,217.97s-13.97,16.68,2.1,34.46c0,0,18.6-15.02-2.1-34.46Z"/>
      </g>
      <g>
        <g>
          <polygon class="cls-3" points="436.17 236.77 409.22 277.94 364.33 277.04 337.8 234.78 366.03 193.31 410.92 194.21 436.17 236.77"/>
          <polygon class="cls-3" points="410.07 236.08 367.23 259.58 368.24 209.91 410.07 236.08"/>
          <polyline class="cls-3" points="436.17 236.77 410.07 236.08 410.92 194.21 368.24 209.91 366.03 193.31"/>
          <polyline class="cls-3" points="410.07 236.08 409.22 277.94 367.23 259.58 364.33 277.04"/>
          <polyline class="cls-3" points="367.23 259.58 337.8 234.78 368.24 209.91"/>
        </g>
        <text class="cls-16" transform="translate(371.38 226.11) rotate(91.61) scale(.6 1)"><tspan x="0" y="0">20</tspan></text>
      </g>
    </g>
  </g>
</svg>